<svg id="Layer_1" enable-background="new 0 0 152 152" height="512" viewBox="0 0 152 152" width="512" xmlns="http://www.w3.org/2000/svg" xmlns:xlink="http://www.w3.org/1999/xlink"><linearGradient id="lg1"><stop offset="0" stop-color="#42a5f5"/><stop offset="1" stop-color="#1565c0"/></linearGradient><linearGradient id="SVGID_1_" gradientTransform="matrix(1 0 0 -1 0 -192)" gradientUnits="userSpaceOnUse" x1="52.648" x2="137.935" xlink:href="#lg1" y1="-250.616" y2="-335.903"/><linearGradient id="SVGID_2_" gradientTransform="matrix(1 0 0 -1 0 -192)" gradientUnits="userSpaceOnUse" x1="-1.709" x2="55.095" xlink:href="#lg1" y1="-261.152" y2="-317.956"/><linearGradient id="SVGID_3_" gradientTransform="matrix(1 0 0 -1 0 -192)" gradientUnits="userSpaceOnUse" x1="15.575" x2="37.689" xlink:href="#lg1" y1="-207.635" y2="-229.748"/><g id="Icon"><path d="m140.9 140.9v-47.6c0-23.4-5-41.2-32.3-41.2-13.1 0-21.9 7.1-25.5 14h-.3v-11.9h-25.8v86.7h27v-42.9c0-11.4 2.1-22.2 16.2-22.2s14 13 14 23v42.2z" fill="url(#SVGID_1_)"/><path d="m13.2 54.2h26.9v86.7h-26.9z" fill="url(#SVGID_2_)"/><path d="m26.7 11c-8.6 0-15.7 7-15.7 15.6s7 15.7 15.6 15.7 15.7-7 15.7-15.6v-.2c0-8.5-7-15.5-15.6-15.5z" fill="url(#SVGID_3_)"/></g></svg>