<svg id="Layer_1" enable-background="new 0 0 25 25" height="512" viewBox="0 0 25 25" width="512" xmlns="http://www.w3.org/2000/svg"><g id="_x34_1"><path d="m19.4450073 22.4150085h-.7200317v-19.9699707c0-1.0200195-.8399658-1.8600464-1.8599854-1.8600464h-8.7299804c-1.0300293 0-1.8599854.8400269-1.8599854 1.8600464v19.9699707h-.7200317c-.5599976 0-1 .4500122-1 1s.4400024 1 1 1h13.8900146c.5499878 0 1-.4500122 1-1s-.4500122-1-1-1zm-5.4500122-18.7999877c0-.1699829.1400146-.3099976.3099976-.3099976h1.3900146c.1699829 0 .2999878.1400146.2999878.3099976v1.4400024c0 .1699829-.1300049.3099976-.2999878.3099976h-1.3900146c-.1699829 0-.3099976-.1400146-.3099976-.3099976zm0 4.5599975c0-.1699829.1400146-.3099976.3099976-.3099976h1.3900146c.1699829 0 .2999878.1400146.2999878.3099976v1.4400024c0 .1699829-.1300049.3099976-.2999878.3099976h-1.3900146c-.1699829 0-.3099976-.1400146-.3099976-.3099976zm0 4.5499878c0-.1599731.1400146-.2999878.3099976-.2999878h1.3900146c.1699829 0 .2999878.1400146.2999878.2999878v1.4500122c0 .1699829-.1300049.3099976-.2999878.3099976h-1.3900146c-.1699829 0-.3099976-.1400146-.3099976-.3099976zm-5-9.1099853c0-.1699829.1400146-.3099976.3099976-.3099976h1.3900146c.1699829 0 .2999878.1400146.2999878.3099976v1.4400024c0 .1699829-.1300049.3099976-.2999878.3099976h-1.3900146c-.1699829 0-.3099976-.1400146-.3099976-.3099976zm0 4.5599975c0-.1699829.1400146-.3099976.3099976-.3099976h1.3900146c.1699829 0 .2999878.1400146.2999878.3099976v1.4400024c0 .1699829-.1300049.3099976-.2999878.3099976h-1.3900146c-.1699829 0-.3099976-.1400146-.3099976-.3099976zm0 4.5499878c0-.1599731.1400146-.2999878.3099976-.2999878h1.3900146c.1699829 0 .2999878.1400146.2999878.2999878v1.4500122c0 .1699829-.1300049.3099976-.2999878.3099976h-1.3900146c-.1699829 0-.3099976-.1400146-.3099976-.3099976zm1.4100342 9.6900024v-3.289978c0-1.1600342.9299927-2.1000366 2.0899658-2.1000366 1.1725969 0 2.1000366.9275208 2.1000366 2.1000366v3.289978z"/></g></svg>