<svg width="45" height="46" viewBox="0 0 45 46" fill="none" xmlns="http://www.w3.org/2000/svg">
<path d="M22.5 3.3125C17.4586 3.31314 12.6096 5.2477 8.9523 8.71747C5.29499 12.1872 3.1081 16.9278 2.84234 21.9621C2.57658 26.9965 4.2522 31.941 7.52386 35.7765C10.7955 39.612 15.4139 42.0464 20.4272 42.5778C20.5256 41.7172 20.7379 40.7806 21.0628 39.8047L21.0065 39.8005C17.3202 39.475 13.8452 37.9387 11.1234 35.4313C10.8984 33.8422 10.5468 30.9734 11.6718 29.4688C11.9285 29.0686 12.2824 28.7401 12.7005 28.5139C13.1185 28.2876 13.5871 28.171 14.0625 28.175C14.6212 28.1412 15.1648 27.9805 15.6522 27.7051C16.1395 27.4298 16.5577 27.047 16.875 26.5859C17.2336 25.919 17.4399 25.1808 17.4788 24.4245C17.5177 23.6682 17.3883 22.9127 17.1 22.2125C16.7343 20.8062 16.5375 19.8641 17.2406 18.9219C17.7767 18.5885 18.3598 18.3373 18.9703 18.1766L19.0195 18.1597C20.7998 17.5578 23.1947 16.7464 23.8078 14.1828C24.577 10.9808 23.3057 8.66609 22.1329 6.52859L22.05 6.37812L21.9797 6.125H22.5C25.6823 6.125 28.8 7.03344 31.4859 8.74063C30.0076 11.03 28.2293 13.111 26.1984 14.9281C24.2578 16.6859 25.6781 18.7109 26.6203 20.0469C27.5455 21.0384 28.0814 22.3309 28.1292 23.6863C29.0225 23.303 29.9488 23.0017 30.8967 22.7862C30.6538 21.1887 29.9717 19.6902 28.9265 18.4578C28.5746 18.0353 28.29 17.5609 28.0828 17.0516C30.2397 15.1206 32.1311 12.9123 33.7078 10.4844C35.4206 12.0079 36.8035 13.8657 37.7716 15.9436C38.7397 18.0215 39.2724 20.2755 39.337 22.5669C40.3354 22.7075 41.2917 22.8889 42.1875 23.0928V23C42.1875 17.7786 40.1133 12.771 36.4211 9.07884C32.729 5.38671 27.7214 3.3125 22.5 3.3125ZM18.9703 6.50469C19.1953 6.94062 19.4203 7.34844 19.6593 7.77031L19.6973 7.84062C20.752 9.72219 21.6632 11.3548 21.0656 13.5359C20.8265 14.4922 19.6593 14.9422 18.0562 15.5047C16.9056 15.7748 15.8594 16.3761 15.0468 17.2344C14.4962 18.0521 14.1533 18.9918 14.0479 19.972C13.9426 20.9522 14.0779 21.9433 14.4422 22.8594C14.7093 23.9 14.864 24.5469 14.5828 24.9688C14.3831 25.2697 14.3606 25.2697 14.0948 25.2809C13.9879 25.2852 13.8417 25.2922 13.6265 25.3203C12.7881 25.3729 11.9726 25.6154 11.2417 26.0296C10.5109 26.4438 9.88373 27.0187 9.40778 27.7109C8.59779 28.8892 8.1438 30.2756 8.09997 31.7047C6.48781 29.087 5.63122 26.0743 5.62497 23C5.62643 19.1386 6.95214 15.3945 9.38083 12.3926C11.8095 9.39059 15.1943 7.31236 18.9703 6.50469ZM25.8426 38.8977C26.9297 40.0353 28.9082 41.2812 32.3437 41.2812C38.3822 41.2812 40.2722 33.5047 41.1314 29.9722C41.272 29.39 41.3845 28.9231 41.4843 28.625C41.6981 27.9866 42.2479 27.5141 42.8653 27.1569C43.8356 26.6 43.8581 25.6944 42.7753 25.4103C37.672 24.073 30.0768 23.3263 25.3125 28.0892C23.3381 30.0636 23.369 32.6511 23.7754 34.5397C23.857 34.4253 23.9404 34.3105 24.0257 34.1952C26.2392 31.1998 29.4806 28.4155 33.757 26.9277C34.0187 26.845 34.3023 26.8676 34.5476 26.9906C34.7929 27.1136 34.9805 27.3274 35.0708 27.5866C35.161 27.8457 35.1467 28.1298 35.0308 28.3786C34.915 28.6274 34.7067 28.8212 34.4503 28.9189C30.6393 30.245 27.7284 32.7341 25.7217 35.4495C23.7192 38.1608 22.6701 41.0281 22.5 43.0742C22.51 43.3429 22.6223 43.5977 22.8138 43.7864C23.0054 43.9751 23.2618 44.0834 23.5307 44.0894C23.7995 44.0953 24.0605 43.9983 24.2602 43.8182C24.4599 43.6382 24.5833 43.3886 24.6051 43.1206C24.7036 41.8452 25.1114 40.377 25.8426 38.8977Z" fill="black"/>
</svg>
