<svg width="45" height="46" viewBox="0 0 45 46" fill="none" xmlns="http://www.w3.org/2000/svg">
<path d="M18.9001 15.5L15.7876 28.895C15.1126 31.8013 14.777 33.2525 15.1632 34.6175L15.1857 34.6981C15.5907 36.0575 16.652 37.0944 18.7707 39.17C20.5201 40.8819 21.3957 41.7387 22.4701 41.75H22.5301C23.6064 41.7369 24.4801 40.8819 26.2295 39.17C28.3482 37.0944 29.4095 36.0575 29.8145 34.6981L29.837 34.6175C30.2232 33.2525 29.8857 31.7994 29.2107 28.895L26.102 15.5M16.352 11.0188C15.3039 9.1625 14.7807 8.2325 15.0882 7.38875C15.3957 6.545 16.3857 6.1925 18.3657 5.49125L20.0532 4.89312C21.2645 4.46375 21.872 4.25 22.5001 4.25C23.1282 4.25 23.7357 4.46375 24.947 4.89312L26.6345 5.49313C28.6145 6.1925 29.6045 6.54313 29.912 7.38688C30.2214 8.23063 29.6964 9.16063 28.6482 11.0169L27.6807 12.7325C27.1839 13.6119 26.9364 14.0506 26.4995 14.3956C26.0682 14.7406 25.6651 14.855 24.8589 15.0856C24.0882 15.3069 23.2089 15.5 22.5001 15.5C21.7914 15.5 20.912 15.3069 20.1414 15.0856C19.3351 14.855 18.9339 14.7406 18.4989 14.3956C18.0639 14.0506 17.8164 13.6119 17.3195 12.7325L16.352 11.0188Z" stroke="black" stroke-width="2.8125" stroke-linecap="round" stroke-linejoin="round"/>
</svg>
