<svg width="45" height="43" viewBox="0 0 45 43" fill="none" xmlns="http://www.w3.org/2000/svg">
<path d="M29.5312 0.5C29.9121 0.5 30.2417 0.63916 30.52 0.917481L44.5825 14.98C44.8608 15.2583 45 15.5879 45 15.9688C45 16.3496 44.8608 16.6792 44.5825 16.9575L39.2432 22.2969C39.6094 22.6631 39.9683 23.0147 40.3198 23.3516C40.6714 23.6885 40.979 24.0327 41.2427 24.3843C41.5063 24.7358 41.7261 25.1314 41.9019 25.5708C42.0776 26.0103 42.1655 26.501 42.1655 27.043C42.1655 27.6289 42.0557 28.1856 41.8359 28.7129C41.6162 29.2402 41.3159 29.7017 40.9351 30.0972C40.5542 30.4927 40.1074 30.8076 39.5947 31.042C39.082 31.2764 38.5327 31.4009 37.9468 31.4155C37.9175 32.0161 37.793 32.5654 37.5732 33.0635C37.3535 33.5615 37.0605 34.001 36.6943 34.3818C36.3281 34.7627 35.8887 35.063 35.376 35.2827C34.8633 35.5024 34.314 35.6196 33.728 35.6343C33.7134 36.2202 33.5889 36.7695 33.3545 37.2822C33.1201 37.7949 32.8052 38.2417 32.4097 38.6226C32.0142 39.0034 31.5527 39.311 31.0254 39.5454C30.498 39.7798 29.9414 39.8897 29.3555 39.875C28.8867 39.875 28.4106 39.7944 27.9272 39.6333C27.7661 40.0874 27.5537 40.4976 27.29 40.8638C27.0264 41.23 26.7041 41.5522 26.3232 41.8306C25.9424 42.1089 25.5396 42.3213 25.1147 42.4678C24.6899 42.6143 24.2285 42.6875 23.7305 42.6875C23.3496 42.6875 23.0127 42.6582 22.7197 42.5996C22.4268 42.541 22.1558 42.4385 21.9067 42.292C21.6577 42.1455 21.4087 41.9844 21.1597 41.8086C20.9106 41.6328 20.6543 41.4204 20.3906 41.1714C19.8779 41.6401 19.3799 42.0064 18.8965 42.27C18.4131 42.5337 17.7979 42.6729 17.0508 42.6875C16.4648 42.6875 15.9082 42.5776 15.3809 42.3579C14.8535 42.1382 14.3921 41.8379 13.9966 41.457C13.6011 41.0762 13.2861 40.6294 13.0518 40.1167C12.8174 39.604 12.6929 39.0474 12.6782 38.4468C12.1069 38.4321 11.5649 38.3149 11.0522 38.0952C10.5396 37.8755 10.0928 37.5752 9.71191 37.1943C9.33105 36.8135 9.03076 36.3667 8.81104 35.854C8.59131 35.3413 8.47412 34.7993 8.45947 34.228C7.87354 34.2134 7.33154 34.0962 6.8335 33.8765C6.33545 33.6567 5.896 33.3564 5.51514 32.9756C5.13428 32.5947 4.83398 32.148 4.61426 31.6353C4.39453 31.1226 4.27002 30.5806 4.24072 30.0093C3.64014 29.9946 3.0835 29.8701 2.5708 29.6357C2.05811 29.4014 1.61133 29.0864 1.23047 28.6909C0.849609 28.2954 0.549316 27.8413 0.32959 27.3286C0.109863 26.8159 0 26.2593 0 25.6587C0 25.0581 0.109863 24.4941 0.32959 23.9668C0.549316 23.4395 0.871582 22.9634 1.29639 22.5386L3.62549 20.1875L0.41748 16.9575C0.13916 16.6792 0 16.3496 0 15.9688C0 15.5879 0.13916 15.2583 0.41748 14.98L14.48 0.917481C14.7583 0.63916 15.0879 0.5 15.4688 0.5C15.8496 0.5 16.1792 0.63916 16.4575 0.917481L19.3579 3.81787C19.5483 3.75928 19.9146 3.63477 20.4565 3.44434C20.9985 3.25391 21.6357 3.0415 22.3682 2.80713C23.1006 2.57275 23.855 2.31641 24.6313 2.03809C25.4077 1.75977 26.1548 1.51074 26.8726 1.29102C27.5903 1.07129 28.1836 0.880859 28.6523 0.719727C29.1211 0.558594 29.4141 0.485352 29.5312 0.5ZM6.85547 21.5938C6.43066 21.5938 6.06445 21.7476 5.75684 22.0552L3.27393 24.5161C2.96631 24.8237 2.8125 25.1973 2.8125 25.6367C2.8125 26.0762 2.95898 26.4424 3.25195 26.7354C3.54492 27.0283 3.91846 27.1821 4.37256 27.1968C4.82666 27.1968 5.2002 27.0503 5.49316 26.7573L7.97607 24.2964C8.28369 23.9888 8.4375 23.6152 8.4375 23.1758C8.4375 22.7363 8.28369 22.3628 7.97607 22.0552C7.66846 21.7476 7.29492 21.5938 6.85547 21.5938ZM11.0742 25.8125C10.8691 25.8125 10.6714 25.8491 10.481 25.9224C10.2905 25.9956 10.1147 26.1128 9.95361 26.2739L7.49268 28.7568C7.18506 29.0645 7.03125 29.438 7.03125 29.8774C7.03125 30.3022 7.18506 30.6611 7.49268 30.9541C7.80029 31.2471 8.17383 31.4009 8.61328 31.4155C8.81836 31.4155 9.01611 31.3789 9.20654 31.3057C9.39697 31.2324 9.57275 31.1226 9.73389 30.9761L12.1948 28.4932C12.5024 28.1856 12.6562 27.8193 12.6562 27.3945C12.6562 26.9551 12.5024 26.5815 12.1948 26.2739C11.8872 25.9663 11.5137 25.8125 11.0742 25.8125ZM15.293 30.0313C14.8682 30.0313 14.502 30.1851 14.1943 30.4927L11.7114 32.9536C11.4038 33.2612 11.25 33.6348 11.25 34.0742C11.25 34.5137 11.3965 34.8799 11.6895 35.1729C11.9824 35.4658 12.356 35.6196 12.8101 35.6343C13.2642 35.6343 13.6377 35.4878 13.9307 35.1948L16.4136 32.7339C16.7212 32.4263 16.875 32.0527 16.875 31.6133C16.875 31.1738 16.7212 30.8003 16.4136 30.4927C16.106 30.1851 15.7324 30.0313 15.293 30.0313ZM15.4688 38.3149C15.4688 38.7397 15.6226 39.0986 15.9302 39.3916C16.2378 39.6846 16.6113 39.8384 17.0508 39.853C17.2559 39.853 17.4536 39.8164 17.644 39.7432C17.8345 39.6699 18.0103 39.5601 18.1714 39.4136L20.6323 36.9307C20.9399 36.6231 21.0938 36.2568 21.0938 35.832C21.0938 35.3926 20.9399 35.019 20.6323 34.7114C20.3247 34.4038 19.9512 34.25 19.5117 34.25C19.3066 34.25 19.1089 34.2866 18.9185 34.3599C18.728 34.4331 18.5522 34.5503 18.3911 34.7114L15.9302 37.1943C15.6226 37.502 15.4688 37.8755 15.4688 38.3149ZM37.793 28.625C38.2178 28.625 38.584 28.4712 38.8916 28.1636C39.1992 27.856 39.3604 27.4897 39.375 27.0649C39.375 26.6255 39.2212 26.252 38.9136 25.9443L25.0269 12.0356C24.9829 11.9917 24.9097 11.9551 24.8071 11.9258C24.7046 11.8965 24.6021 11.8672 24.4995 11.8379C24.397 11.8086 24.2871 11.7866 24.1699 11.772C24.0527 11.7573 23.9648 11.75 23.9062 11.75C23.5254 11.75 23.1665 11.8232 22.8296 11.9697C22.4927 12.1162 22.1924 12.314 21.9287 12.563C21.665 12.812 21.46 13.1123 21.3135 13.4639C21.167 13.8154 21.0938 14.1816 21.0938 14.5625C21.0938 15.3389 20.9473 16.064 20.6543 16.7378C20.3613 17.4116 19.9585 18.0122 19.4458 18.5396C18.9331 19.0669 18.3398 19.4697 17.666 19.748C16.9922 20.0264 16.2598 20.1729 15.4688 20.1875C14.8828 20.1875 14.3335 20.0776 13.8208 19.8579C13.3081 19.6382 12.8613 19.3379 12.4805 18.957C12.0996 18.5762 11.7993 18.1294 11.5796 17.6167C11.3599 17.104 11.25 16.5547 11.25 15.9688C11.25 15.6172 11.2866 15.229 11.3599 14.8042C11.4331 14.3794 11.5503 13.9985 11.7114 13.6616L15.8203 5.42188C15.9521 5.1875 16.1499 4.99707 16.4136 4.85059L15.4688 3.90576L3.38379 15.9688L6.3501 18.9131C7.00928 18.8398 7.63184 18.8838 8.21777 19.0449C8.80371 19.2061 9.31641 19.4771 9.75586 19.8579C10.1953 20.2388 10.5469 20.7002 10.8105 21.2422C11.0742 21.7842 11.2134 22.3921 11.228 23.0659C11.814 23.0952 12.3633 23.2124 12.876 23.4175C13.3887 23.6226 13.8281 23.9155 14.1943 24.2964C14.5605 24.6772 14.8608 25.1167 15.0952 25.6147C15.3296 26.1128 15.4468 26.6694 15.4468 27.2847C16.0327 27.314 16.582 27.4312 17.0947 27.6362C17.6074 27.8413 18.0469 28.1343 18.4131 28.5151C18.7793 28.896 19.0796 29.3355 19.314 29.8335C19.5483 30.3315 19.6655 30.8882 19.6655 31.5034C20.2661 31.5327 20.8228 31.6572 21.3354 31.877C21.8481 32.0967 22.2949 32.397 22.6758 32.7778C23.0566 33.1587 23.3569 33.6128 23.5767 34.1401C23.7964 34.6675 23.9062 35.2314 23.9062 35.832C23.9062 36.4912 23.7744 37.1064 23.5107 37.6777C23.2471 38.249 22.8662 38.7471 22.3682 39.1719C22.5879 39.377 22.7856 39.5454 22.9614 39.6772C23.1372 39.8091 23.3936 39.875 23.7305 39.875C24.1553 39.875 24.5215 39.7212 24.8291 39.4136C25.1367 39.106 25.2979 38.7397 25.3125 38.3149C25.3125 37.8755 25.1587 37.502 24.8511 37.1943L26.8286 35.1948L28.2568 36.6011C28.5938 36.9087 28.96 37.0625 29.3555 37.0625C29.7803 37.0625 30.1465 36.9087 30.4541 36.6011C30.7617 36.2935 30.9229 35.9272 30.9375 35.5024C30.9375 35.063 30.7837 34.6895 30.4761 34.3818L27.9932 31.8989L29.9927 29.9214L32.4536 32.3823C32.7612 32.6899 33.1348 32.8438 33.5742 32.8438C34.0137 32.8438 34.3872 32.6899 34.6948 32.3823C35.0024 32.0747 35.1562 31.7012 35.1562 31.2617C35.1562 30.8223 35.0024 30.4487 34.6948 30.1411L32.2119 27.6802L34.2114 25.6807L36.6943 28.1636C37.002 28.4712 37.3682 28.625 37.793 28.625ZM41.5942 15.9688L29.1577 3.51025L18.0835 7.20166L14.2603 14.8481C14.187 14.98 14.1357 15.1631 14.1064 15.3975C14.0771 15.6318 14.0625 15.8223 14.0625 15.9688C14.0625 16.3496 14.2017 16.6792 14.48 16.9575C14.7583 17.2358 15.0879 17.375 15.4688 17.375C15.8643 17.375 16.2305 17.3018 16.5674 17.1553C16.9043 17.0088 17.1973 16.811 17.4463 16.562C17.6953 16.313 17.9004 16.0127 18.0615 15.6611C18.2227 15.3096 18.2959 14.9434 18.2812 14.5625C18.2812 13.7861 18.4277 13.061 18.7207 12.3872C19.0137 11.7134 19.4165 11.1128 19.9292 10.5855C20.4419 10.0581 21.0352 9.65527 21.709 9.37695C22.3828 9.09863 23.1152 8.95215 23.9062 8.9375C24.1406 8.9375 24.3896 8.95947 24.6533 9.00342C24.917 9.04736 25.1953 9.10596 25.4883 9.1792C25.7812 9.25244 26.0376 9.35498 26.2573 9.48682C26.4771 9.61865 26.6895 9.77246 26.8945 9.94824L37.2656 20.3193L41.5942 15.9688Z" fill="black"/>
</svg>
