<svg width="45" height="46" viewBox="0 0 45 46" fill="none" xmlns="http://www.w3.org/2000/svg">
<path d="M42.1875 40.7188L38.25 36.7812C38.9531 35.6562 39.375 34.25 39.375 32.8438C39.375 28.9062 36.2812 25.8125 32.3438 25.8125C28.4062 25.8125 25.3125 28.9062 25.3125 32.8438C25.3125 36.7812 28.4062 39.875 32.3438 39.875C33.75 39.875 35.1562 39.4531 36.2812 38.75L40.2188 42.6875L42.1875 40.7188ZM28.125 32.8438C28.125 30.4531 29.9531 28.625 32.3438 28.625C34.7344 28.625 36.5625 30.4531 36.5625 32.8438C36.5625 35.2344 34.7344 37.0625 32.3438 37.0625C29.9531 37.0625 28.125 35.2344 28.125 32.8438ZM11.25 23H25.3125V25.8125H11.25V23ZM11.25 14.5625H28.125V17.375H11.25V14.5625Z" fill="black"/>
<path d="M19.6875 39.4531L12.375 35.5156C8.15625 33.4062 5.625 29.0469 5.625 24.4062V6.125H33.75V21.5938H36.5625V6.125C36.5625 4.57812 35.2969 3.3125 33.75 3.3125H5.625C4.07812 3.3125 2.8125 4.57812 2.8125 6.125V24.4062C2.8125 30.1719 5.90625 35.375 10.9688 38.0469L19.6875 42.6875V39.4531Z" fill="black"/>
</svg>
