<svg enable-background="new 0 0 512 512" height="512" viewBox="0 0 512 512" width="512" xmlns="http://www.w3.org/2000/svg"><g id="address_destination_location_map_pin"><path d="m356.402 0c-85.797 0-155.598 69.801-155.598 155.597.001 102.266 155.598 356.403 155.598 356.403s155.598-252.146 155.598-356.403c0-85.796-69.801-155.597-155.598-155.597zm-.001 267.018c-61.438 0-111.421-49.983-111.421-111.421s49.984-111.421 111.421-111.421c61.444 0 111.434 49.983 111.434 111.421s-49.989 111.421-111.434 111.421zm0-207.795c-53.142 0-96.376 43.232-96.376 96.374s43.234 96.375 96.376 96.375c53.148 0 96.388-43.233 96.388-96.375s-43.239-96.374-96.388-96.374zm0 177.886c-44.945 0-81.512-36.566-81.512-81.512 0-44.945 36.566-81.511 81.512-81.511 44.952 0 81.522 36.566 81.522 81.511.001 44.946-36.569 81.512-81.522 81.512z"/></g><g id="Capa_1"/></svg>