<svg id="Layer_1" enable-background="new 0 0 100 100" viewBox="0 0 100 100" xmlns="http://www.w3.org/2000/svg"><path d="m96.9929047 77.3920746c-4.4109268-9.2089233-11.9345932-15.217289-22.6821365-17.8988914-1.6145096-.4027901-3.3298569-.0026398-4.6184387 1.050209l-8.9262848 7.2935371c-1.7429161 1.4240723-4.2063713 1.6075592-6.1220169.4259186-9.442337-5.8246231-17.0822258-13.4645157-22.9068508-22.9068527-1.1816368-1.9156418-.9982166-4.3791008.4259205-6.1220169l7.2935371-8.9262848c1.0528488-1.2885857 1.4529991-3.0039272 1.0501442-4.6184425-2.6815377-10.7476082-8.6899072-18.2712117-17.8988934-22.6821373-1.4856625-.7116497-3.2382431-.6718988-4.6913071.1041768-4.6308107 2.4731207-9.0611925 5.2714639-13.2585449 8.4182224-1.6071708 1.204895-2.4181006 3.1971407-2.0836654 5.1777878 3.0173268 17.8704161 12.6731715 36.6629653 28.3643126 52.3540473 15.6910763 15.6911392 34.4836197 25.3469238 52.3539734 28.3643112 1.9806442.3343735 3.9729538-.4765549 5.1778488-2.083725 3.146698-4.1972885 5.9450989-8.6276703 8.4182205-13.2584839.7760182-1.4530639.8158284-3.2056427.1041814-4.6913757z"/></svg>