<svg height="512" viewBox="0 0 64 64" width="512" xmlns="http://www.w3.org/2000/svg"><g id="Layer_5"><path d="m32 2c-16.5 0-30 13.5-30 30s13.5 30 30 30 30-13.5 30-30-13.5-30-30-30zm8 14c3.3 0 6 2.7 6 6 0 1.1-.9 2-2 2s-2-.9-2-2-.9-2-2-2-2 .9-2 2-.9 2-2 2-2-.9-2-2c0-3.3 2.7-6 6-6zm-16 0c3.3 0 6 2.7 6 6 0 1.1-.9 2-2 2s-2-.9-2-2-.9-2-2-2-2 .9-2 2-.9 2-2 2-2-.9-2-2c0-3.3 2.7-6 6-6zm8 34c-9.9 0-18-8.1-18-18 0-1.1.9-2 2-2s2 .9 2 2c0 7.7 6.3 14 14 14s14-6.3 14-14c0-1.1.9-2 2-2s2 .9 2 2c0 9.9-8.1 18-18 18z"/></g></svg>